# xmcd
#
# Track frame offsets:
#	150
#	32498
#	56133
#	74367
#	95483
#	139266
#	176322
#
# Disc length: 2785 seconds
#
# Revision: 1
# Processed by: cddbd v1.5.2PL0 Copyright (c) Steve Scherf et al.
# Submitted via: audiograbber 1.83.01
#
DISCID=5d0adf07
DTITLE=Grateful Dead - 74-06-16 State Fairgrounds, Des Moines IA
DYEAR=1900
DGENRE=
TTITLE0=Truckin'
TTITLE1=Nobody's Fault But Mine Jam
TTITLE2=Jam 2
TTITLE3=Jam 3
TTITLE4=Wharf Rat
TTITLE5=Going Down The Road Feeling Bad
TTITLE6=Casey Jones
EXTD=
EXTT0=
EXTT1=
EXTT2=
EXTT3=
EXTT4=
EXTT5=
EXTT6=
PLAYORDER=
